<svg width="1728" height="567" viewBox="0 0 1728 567" fill="none" xmlns="http://www.w3.org/2000/svg">
<path d="M0 53.3898H1728V567C1728 567 1562 567 1429 567C1296 567 1273.5 426.051 1134 426.051C994.5 426.051 678 567 569 567C460 567 347 481.576 257.5 481.576C168 481.576 0 567 0 567V53.3898Z" fill="#B5C6FF"/>
<path d="M0 0H1728V513.61C1728 513.61 1562 513.61 1429 513.61C1296 513.61 1273.5 372.661 1134 372.661C994.5 372.661 678 513.61 569 513.61C460 513.61 347 428.186 257.5 428.186C168 428.186 0 513.61 0 513.61V0Z" fill="#436FFF"/>
</svg>
