<svg width="1728" height="438" viewBox="0 0 1728 438" fill="none" xmlns="http://www.w3.org/2000/svg">
<path d="M0 41.2429H1728V438C1728 438 1562 438 1429 438C1296 438 1273.5 329.119 1134 329.119C994.5 329.119 678 438 569 438C460 438 347 372.011 257.5 372.011C168 372.011 0 438 0 438V41.2429Z" fill="#BFECFC"/>
<path d="M0 0H1728V396.757C1728 396.757 1562 396.757 1429 396.757C1296 396.757 1273.5 287.876 1134 287.876C994.5 287.876 678 396.757 569 396.757C460 396.757 347 330.768 257.5 330.768C168 330.768 0 396.757 0 396.757V0Z" fill="#43C0FF"/>
</svg>
