<svg width="1728" height="444" viewBox="0 0 1728 444" fill="none" xmlns="http://www.w3.org/2000/svg">
<path d="M0 41.8079H1728V444C1728 444 1562 444 1429 444C1296 444 1273.5 333.627 1134 333.627C994.5 333.627 678 444 569 444C460 444 347 377.107 257.5 377.107C168 377.107 0 444 0 444V41.8079Z" fill="#FFD8CC"/>
<path d="M0 0H1728V402.192C1728 402.192 1562 402.192 1429 402.192C1296 402.192 1273.5 291.819 1134 291.819C994.5 291.819 678 402.192 569 402.192C460 402.192 347 335.299 257.5 335.299C168 335.299 0 402.192 0 402.192V0Z" fill="#FF6F43"/>
</svg>
