<?xml version="1.0" encoding="UTF-8" standalone="no"?>
<!DOCTYPE svg PUBLIC "-//W3C//DTD SVG 1.1//EN" "http://www.w3.org/Graphics/SVG/1.1/DTD/svg11.dtd">
<svg width="100%" height="100%" viewBox="0 0 101 21" version="1.1" xmlns="http://www.w3.org/2000/svg" xmlns:xlink="http://www.w3.org/1999/xlink" xml:space="preserve" xmlns:serif="http://www.serif.com/" style="fill-rule:evenodd;clip-rule:evenodd;stroke-linejoin:round;stroke-miterlimit:2;">
    <g transform="matrix(1,0,0,1,-500.664,-345.227)">
        <g transform="matrix(1,0,0,1,208.396,40.36)">
            <g transform="matrix(1,0,0,1,53.0389,129.691)">
                <g transform="matrix(20,0,0,20,257.619,190.476)">
                    <rect x="0.081" y="-0.731" width="0.128" height="0.731" style="fill-rule:nonzero;"/>
                </g>
                <g transform="matrix(20,0,0,20,263.419,190.476)">
                    <path d="M0.185,-0L0.185,-0.266C0.185,-0.346 0.231,-0.398 0.306,-0.398C0.369,-0.398 0.41,-0.358 0.41,-0.275L0.41,-0L0.532,-0L0.532,-0.304C0.532,-0.432 0.468,-0.509 0.344,-0.509C0.277,-0.509 0.217,-0.48 0.186,-0.43L0.176,-0.494L0.063,-0.494L0.063,-0L0.185,-0Z" style="fill-rule:nonzero;"/>
                </g>
                <g transform="matrix(20,0,0,20,275.199,190.476)">
                    <path d="M0.186,-0L0.186,-0.133L0.258,-0.208L0.387,-0L0.527,-0L0.343,-0.298L0.531,-0.494L0.378,-0.494L0.186,-0.287L0.186,-0.744L0.065,-0.744L0.065,-0L0.186,-0Z" style="fill-rule:nonzero;"/>
                </g>
                <g transform="matrix(20,0,0,20,285.959,190.476)">
                    <rect x="0.065" y="-0.744" width="0.121" height="0.744" style="fill-rule:nonzero;"/>
                </g>
                <g transform="matrix(20,0,0,20,290.979,190.476)">
                    <path d="M0.398,-0.494L0.398,-0.235C0.398,-0.141 0.361,-0.096 0.284,-0.096C0.216,-0.096 0.179,-0.134 0.179,-0.228L0.179,-0.494L0.057,-0.494L0.057,-0.185C0.057,-0.064 0.124,0.013 0.238,0.013C0.304,0.013 0.368,-0.019 0.398,-0.066L0.407,-0L0.52,-0L0.52,-0.494L0.398,-0.494Z" style="fill-rule:nonzero;"/>
                </g>
                <g transform="matrix(20,0,0,20,302.439,190.476)">
                    <path d="M0.025,-0.15C0.025,-0.053 0.103,0.013 0.226,0.013C0.348,0.013 0.433,-0.049 0.433,-0.149C0.433,-0.225 0.391,-0.263 0.308,-0.282L0.219,-0.303C0.177,-0.313 0.155,-0.331 0.155,-0.359C0.155,-0.396 0.183,-0.418 0.231,-0.418C0.278,-0.418 0.306,-0.391 0.307,-0.349L0.423,-0.349C0.422,-0.445 0.347,-0.509 0.236,-0.509C0.122,-0.509 0.04,-0.451 0.04,-0.354C0.04,-0.275 0.083,-0.233 0.172,-0.213L0.261,-0.192C0.305,-0.182 0.318,-0.164 0.318,-0.139C0.318,-0.103 0.287,-0.08 0.23,-0.08C0.174,-0.08 0.142,-0.107 0.141,-0.15L0.025,-0.15Z" style="fill-rule:nonzero;"/>
                </g>
                <g transform="matrix(20,0,0,20,311.699,190.476)">
                    <path d="M0.124,-0.593C0.164,-0.593 0.197,-0.626 0.197,-0.667C0.197,-0.708 0.164,-0.74 0.124,-0.74C0.082,-0.74 0.049,-0.708 0.049,-0.667C0.049,-0.626 0.082,-0.593 0.124,-0.593ZM0.063,-0L0.185,-0L0.185,-0.494L0.063,-0.494L0.063,-0Z" style="fill-rule:nonzero;"/>
                </g>
                <g transform="matrix(20,0,0,20,316.659,190.476)">
                    <path d="M0.035,-0.258C0.035,-0.115 0.127,-0.01 0.267,-0.01C0.338,-0.01 0.399,-0.039 0.43,-0.085L0.43,-0.003C0.43,0.079 0.376,0.132 0.292,0.132C0.217,0.132 0.168,0.094 0.16,0.03L0.038,0.03C0.053,0.162 0.15,0.243 0.292,0.243C0.452,0.243 0.551,0.14 0.551,-0.025L0.551,-0.494L0.438,-0.494L0.431,-0.426C0.402,-0.479 0.344,-0.51 0.27,-0.51C0.129,-0.51 0.035,-0.402 0.035,-0.258ZM0.158,-0.261C0.158,-0.342 0.21,-0.403 0.291,-0.403C0.376,-0.403 0.427,-0.345 0.427,-0.261C0.427,-0.175 0.375,-0.116 0.291,-0.116C0.211,-0.116 0.158,-0.178 0.158,-0.261Z" style="fill-rule:nonzero;"/>
                </g>
                <g transform="matrix(20,0,0,20,328.939,190.476)">
                    <path d="M0.185,-0L0.185,-0.266C0.185,-0.346 0.231,-0.398 0.306,-0.398C0.369,-0.398 0.41,-0.358 0.41,-0.275L0.41,-0L0.532,-0L0.532,-0.304C0.532,-0.432 0.468,-0.509 0.344,-0.509C0.277,-0.509 0.217,-0.48 0.186,-0.43L0.176,-0.494L0.063,-0.494L0.063,-0L0.185,-0Z" style="fill-rule:nonzero;"/>
                </g>
            </g>
            <g transform="matrix(0.491088,0,0,0.491088,255.994,244.484)">
                <path d="M79.81,127.47C82.953,124.664 87.099,122.957 91.639,122.957C96.354,122.957 100.643,124.797 103.826,127.797C100.508,133.731 94.816,143.03 91.639,143.206C88.137,143.399 82.441,132.791 79.81,127.47ZM91.959,131.368C89.797,131.368 88.041,133.1 88.041,135.233C88.041,137.366 89.797,139.098 91.959,139.098C94.122,139.098 95.877,137.366 95.877,135.233C95.877,133.1 94.122,131.368 91.959,131.368ZM89.153,158.336C80.518,157.125 73.864,149.7 73.864,140.733C73.864,137.105 74.953,133.729 76.823,130.915C79.243,135.285 83.264,142.839 86.246,149.914C87.497,152.882 88.427,155.821 89.153,158.336ZM106.867,131.563C108.484,134.241 109.415,137.379 109.415,140.733C109.415,149.696 102.768,157.118 94.138,158.335C94.973,155.111 95.942,151.501 97.081,149.075C99.012,144.964 103.642,136.998 106.867,131.563Z" style="fill:rgb(11,8,8);"/>
            </g>
        </g>
    </g>
</svg>
